<svg width="2759" height="800" viewBox="0 0 2759 800" fill="none" xmlns="http://www.w3.org/2000/svg">
<rect x="1000" y="440" width="1000" height="79" transform="rotate(-180 1000 440)" fill="#048B95"/>
<rect x="2759" y="438" width="1000" height="77" transform="rotate(-180 2759 438)" fill="#048B95"/>
<path d="M1049.38 226.343C1050.03 225.056 1052.84 219.966 1054.08 217.776C1052.78 220.325 1047 230.971 1049.38 226.343ZM1231.77 44.5366C1229.79 45.3971 1227.82 46.2742 1225.86 47.1714C1231.5 44.7496 1239.12 41.6705 1244.49 39.7388C1245.37 39.4215 1243.15 40.3783 1245.22 39.618C1247.29 38.8651 1246.82 38.8463 1249.83 37.7557C1253.18 36.4556 1268.89 31.5226 1274.4 30.0865C1294.91 24.3369 1316.1 20.1963 1337.35 18.0377C1315.43 20.7818 1337.55 18.1165 1343.67 17.6261C1345.02 17.6039 1344.78 16.7978 1366.86 16.02C1376.41 15.8364 1373.49 16.1462 1378 16.1827C1380.13 16.2224 1383.93 16.1949 1391.42 16.3687C1373.41 15.692 1391.12 15.7608 1405.25 16.7848C1407.69 16.8448 1427.31 18.7631 1435.85 20.1935C1438.8 20.6298 1443.32 21.1985 1447.2 21.9042C1449.87 22.3911 1451.87 22.856 1455.81 23.6578C1474.26 27.437 1492.1 32.4901 1509.78 38.9713C1499.3 35.6345 1517.84 42.0931 1518.62 42.5411C1522.78 44.2247 1503.77 37.0869 1511.27 39.9702C1521.8 43.8549 1532.13 48.1966 1542.26 52.9838C1533.97 48.9897 1553.43 57.8956 1556.77 59.9982C1555.8 58.1874 1600.7 86.1307 1606.65 91.6454C1607.95 92.7039 1599.53 85.6646 1619.49 101.438C1621.62 103.182 1620.74 102.614 1621.86 103.521C1622.53 104.063 1626.81 107.121 1630.87 110.953C1632.27 112.441 1622.67 103.639 1643.71 123.018C1636.04 114.549 1671.83 151.064 1676.95 159.074C1675.81 157.582 1674.66 156.1 1673.49 154.623C1679.3 161.874 1680.37 163.17 1681.66 164.817C1686.84 171.487 1693.49 180.985 1697.83 187.537C1702.87 195.21 1703.12 195.111 1708.57 204.338C1707.32 202.126 1706.04 199.926 1704.74 197.734C1708.64 204.04 1712.34 210.442 1715.87 216.969C1707.28 202.108 1717.7 220.192 1718.26 221.444C1719.28 223.379 1717.72 220.646 1719.42 223.888C1719.59 224.227 1719.47 223.67 1722.02 228.715C1727.25 239.311 1726.22 237.716 1728.3 242.215C1728.47 242.636 1727.98 241.11 1731.41 248.964C1741.77 274.1 1731.39 248.831 1730.85 247.917C1730.22 246.708 1733.85 255.264 1724.31 234.264C1727.58 241.277 1727.67 242.098 1728.04 242.889C1728.4 243.572 1733.69 255.913 1733.92 256.615C1736.42 262.718 1734.4 257.276 1734.9 258.461C1735.38 259.407 1740.86 274.627 1742.34 278.13C1744.38 285.616 1740.82 273.948 1736.07 261.857C1735.36 260.101 1740.26 273.488 1740.44 274.212C1746.27 291.646 1743.3 281.914 1744.74 285.681C1745.47 287.659 1747.4 294.897 1745.69 288.197C1750.4 304.211 1747.39 294.542 1747.69 295.577C1748.11 297.148 1749.7 302.783 1749.86 303.5C1750.12 304.544 1749.09 300.953 1750.12 305.059C1750.29 305.738 1752.1 312.302 1750.03 303.772C1752.87 315.15 1752.67 314.221 1753.28 318.169C1755.48 326.008 1754.17 323.98 1754.76 327.107C1756.24 335.431 1756.17 332.959 1756.28 333.392C1757.11 336.397 1760.17 359.665 1760.55 365.451C1760.14 363.23 1758.55 346.936 1757.87 343.384C1755.95 331.408 1760.05 360.343 1758.48 351.662C1759.04 355.311 1759.55 359.01 1760.01 362.664C1760.34 369.43 1759.6 359.824 1760.93 378.04C1761.36 381.003 1760.02 365.159 1760.39 368.332C1760.68 370.18 1761.35 380.78 1761.38 380.979C1761.48 381.195 1760.82 371.612 1761 373.12C1761.74 376.441 1762.31 411.252 1761.53 384.732C1761.77 391.153 1761.51 394.892 1761.53 400C1761.53 400.766 1761.53 401.561 1761.54 402.401C1761.56 403.959 1761.68 401.659 1761.78 400C1761.87 398.581 1761.96 397.636 1762.03 400C1762.07 402.257 1762.17 407.566 1761.66 418.244C1761.5 418.993 1762.08 404.256 1762 403.854C1761.98 403.314 1761.52 405.987 1761.49 406.448C1761.77 408.101 1759.78 443.793 1758.09 451.251C1758.96 448.342 1753.94 477.953 1753.02 481.112C1752.85 481.97 1753.68 478.81 1753.51 479.726C1752.47 485.473 1748.45 500.649 1746.31 507.625C1743.99 515.43 1744.36 514.465 1744.24 514.905C1743.15 518.333 1743.93 515.567 1743.26 517.661C1742.42 520.886 1734.56 542.257 1734 543.266C1733.88 543.579 1735.41 540.187 1733.57 544.801C1733.21 545.583 1733.46 545.083 1727.54 558.561C1720.21 574.68 1732.83 547.449 1729.93 554.212C1725.05 564.511 1725.34 564.222 1724 567.009C1723.53 567.971 1719.86 575.048 1715.76 582.631C1718.67 577.171 1721.46 571.631 1724.12 566.022C1721.48 571.53 1716.06 582.027 1713.53 586.379C1712.32 588.505 1713.16 586.667 1710.53 591.284C1709.94 592.244 1708.2 596.421 1714.82 584.146C1715.5 583.247 1712.21 589.012 1710.7 591.689C1710.47 592.094 1709.79 593.826 1707.63 597.112C1707.01 597.842 1712.05 588.888 1698.27 611.496C1697.81 612.217 1699.53 609.796 1699.08 610.503C1698.79 610.995 1694.99 616.584 1694.57 617.201C1694.15 617.841 1696.08 615.203 1695.59 615.966C1693.04 619.884 1689.17 624.648 1694.69 616.773C1692.83 619.395 1690.94 621.992 1689.01 624.563C1691.28 621.963 1686.15 628.713 1683.44 632.241C1665.83 654.639 1677.81 639.794 1674.85 643.701C1669.93 649.864 1673.44 644.955 1665.9 653.893C1665.12 654.651 1674.95 644.465 1656.14 664.701C1658.95 661.742 1661.71 658.737 1664.42 655.692C1662.66 657.275 1654.45 666.528 1653.76 667.183C1646.16 674.918 1651.37 669.761 1639.81 680.986C1638.77 681.978 1636.42 684.05 1634.15 686.128C1624.77 694.775 1646.68 674.89 1647.17 674.221C1647.69 674.214 1624.1 695.592 1623.03 696.026C1619.41 698.936 1633.99 686.64 1631.1 688.86C1630.45 690.155 1594.78 718.188 1586.66 722.472C1577.8 728.105 1573.47 730.061 1573.66 730.516C1570.88 731.631 1568.77 733.201 1567.6 733.863C1553.39 741.714 1553.33 741.658 1540.81 747.738C1538.04 749.051 1535.61 749.988 1534.63 750.454C1534.06 750.723 1535.2 750.384 1532.39 751.679C1528.55 753.698 1504.34 762.845 1502.43 763.185C1500.6 763.765 1512.7 759.511 1510.49 760.142C1501.78 763.326 1493.27 766.15 1484.31 768.719C1480.57 769.778 1482.46 769.139 1480.85 769.59C1480.17 769.839 1467.19 773.248 1467.74 773.1C1469.18 773.407 1508.84 761.249 1498.44 764.571C1496.45 765.283 1489.27 767.287 1490.48 767.184C1455.05 777.973 1418.05 783.522 1381.01 783.734C1402.24 783.421 1426.22 781.428 1448.12 777.313C1451.12 776.8 1461.23 774.702 1459.97 774.815C1441.49 778.907 1418.07 782.09 1399.9 782.928C1399.32 782.957 1401.45 782.717 1399.27 782.82C1395.21 783.071 1381.98 783.601 1379.72 783.505C1379.34 783.51 1386.9 783.251 1384.6 783.181C1381.62 783.098 1379.77 783.186 1378 783.299C1376.26 783.408 1374.62 783.541 1372.1 783.501C1368.16 783.661 1341.91 781.896 1335.4 781.097C1328.45 780.63 1354.69 783.042 1352.76 782.882C1334.98 781.896 1316.96 779.249 1300.48 775.871C1300.19 775.811 1302.7 776.453 1298.99 775.704C1292.56 774.37 1290.93 773.783 1287.84 773.022C1284.51 772.248 1272.73 769.102 1271.2 768.547C1271.01 768.483 1273.42 768.999 1273.78 769.094C1278.9 770.455 1280.68 771.117 1281.15 771.247C1282.9 771.713 1284.63 772.063 1286.24 772.461C1288.87 773.112 1290.31 773.538 1293.81 774.334C1296.23 774.877 1293.93 774.216 1296.26 774.734C1297.12 774.954 1306.31 777.155 1307.24 776.945C1307.11 778.616 1232.87 757.087 1226.43 752.165C1232.5 754.826 1238.62 757.32 1244.83 759.666C1232.21 754.974 1217.4 748.5 1216.55 747.617C1171.35 726.574 1130.38 696.575 1096.6 659.942C1090.65 653.324 1094 656.872 1084.44 645.796C1086.8 648.748 1089.21 651.666 1091.66 654.548C1086.41 649.155 1066.05 622.865 1063.23 618.257C1062.84 617.682 1062.03 617.057 1057.43 610.143C1053.39 603.976 1052.94 602.852 1050.9 599.477C1049.2 596.641 1047.28 593.465 1046.79 592.61C1046.42 591.954 1046.36 591.643 1045.48 590.062C1042.71 585.053 1044.71 589.25 1042.26 584.108C1042.94 585.314 1043.62 586.517 1044.31 587.715C1040.95 581.668 1036.74 573.255 1041.58 582.176C1042.43 583.705 1041.62 582.437 1042.24 583.582C1068.32 627.452 1046.99 592.714 1038.71 576.854C1036.5 572.815 1025.63 549.501 1025.5 548.607C1025.08 547.495 1026.9 551.499 1024.77 546.145C1023.99 545.157 1012.36 512.793 1016.69 524.396C1017.47 526.816 1023.22 542.282 1024.83 545.902C1021.39 537.216 1013.82 516.667 1013.22 514.245C1010.28 504.748 1019.27 532.368 1012.56 511.003C1007.77 494.491 1012.05 510.061 1010.14 503.725C1008.93 500.172 1004.62 481.197 1004.53 481.746C1003.09 475.194 1004.08 478.997 1003.92 478.186C1003.71 477.396 1001.16 464.53 1000.62 460.263C1000.54 459.749 1000.96 461.338 1000.89 460.806C1000.69 459.752 998.913 447.259 998.885 446.732C998.834 446.412 999.067 449.431 998.877 448.201C998.605 446.777 997.358 434.611 997.307 433.958C997.096 433.01 998.724 448.007 998.318 445.526C997.492 438.574 996.471 427.38 996.105 422.765C996.194 423.893 996.665 430.626 996.868 432.95C996.472 431.894 995.572 417.398 996.064 422.343C995.789 419.196 995.853 421.35 995.666 419.579C995.612 419.121 995.413 414.671 995.349 413.811C995.33 413.701 995.431 418.3 995.346 417.382C995.123 415.736 994.837 402.162 994.916 401.032C994.955 397.896 995.119 408.998 995.282 409.906C995.275 410.042 995.34 400.616 995.384 400.468C995.538 399.923 995.545 410.404 995.711 409.199C995.685 406.613 995.685 404.022 995.711 401.426C995.791 411.436 996.809 429.824 997.521 434.526C996.08 419.811 995.948 404.365 996.388 404.38C996.558 404.392 996.789 410.757 996.84 410.507C996.954 409.572 996.66 400.726 996.693 400.393C996.703 400.123 996.713 400 996.722 400C996.722 400 996.722 400 996.722 400C996.772 400.013 997.042 412.614 997.158 413.227C997.266 414.28 997.423 408.685 997.504 408.691C997.498 408.892 997.887 417.807 997.905 414.794C997.891 411.754 997.755 403.921 997.782 403.642C997.797 402.155 998.173 415.835 998.294 416.224C998.31 416.44 998.204 409.111 998.256 408.892C998.285 408.711 998.526 414.281 998.758 416.458C998.918 418.084 998.797 413.334 998.847 414.168C998.825 414.749 999.534 427.653 999.65 428.28C999.743 429.22 999.637 426.197 999.697 426.634C999.774 427.256 1000.05 431.409 1000.06 430.865C999.972 430.468 999.421 414.305 999.607 414.43C999.74 414.594 1000.23 431.655 1000.13 415.776C1000.12 415.667 999.934 411.818 999.94 411.71C1000 409.327 1000.54 421.68 1000.11 406.564C1001.28 434.617 1000.43 410.061 1000.87 414.202C1001 415.783 1001.67 426.675 1001.72 426.721C1001.79 425.655 1001.46 422.192 1001.47 421.005C1001.45 420.36 1002.24 430.082 1002.2 427.883C1002.13 426.757 1001.53 416.411 1001.56 416.005C1001.49 411.931 1001.79 416.919 1001.82 416.021C1001.83 415.429 1001.64 409.215 1001.65 409.049C1001.64 408.792 1002.1 417.221 1002.28 418.959C1002.39 420.287 1002.23 415.29 1002.3 416.217C1002.63 421.806 1003.17 433.811 1002.86 422.251C1002.84 421.54 1002.61 417.188 1002.61 417.066C1002.62 414.377 1003 422.374 1003.22 423.813C1003.55 426.268 1002.77 414.734 1003.46 424.322C1003.14 417.087 1002.96 413.182 1002.8 404.741C1003.49 427.969 1004.72 436.143 1003.46 410.381C1003.71 418.578 1004 417.631 1004.11 420.083C1004.15 421.621 1004.76 433.508 1004.95 428.024C1004.96 427.341 1004.41 420.124 1004.71 422.377C1005.87 439.677 1004.79 422.748 1004.84 422.72C1004.68 422.991 1009.11 465.021 1011.21 472.056C1012.86 480.317 1014.9 487.554 1015.34 489.318C1016.79 495.149 1015.45 490.345 1015.72 491.661C1015.91 493.021 1020.81 509.465 1021.14 510.239C1022.07 513.425 1020.91 510.256 1021 510.59C1021.95 514.622 1029.75 536.285 1032.36 542.18C1032.34 541.975 1027.62 529.931 1030.73 537.386C1034.42 546.026 1034.28 546.666 1034.34 546.911C1051.3 586.544 1075.22 623.174 1104.62 654.694C1104.25 654.297 1085.72 633.084 1085.54 632.398C1082.89 629.713 1114.28 665.484 1119.01 669.036C1115.86 665.921 1112.76 662.751 1109.71 659.528C1115.12 664.815 1126.95 676.694 1135.42 683.653C1138.13 685.919 1133.04 681.419 1133.16 681.496C1136.23 684.028 1141.07 688.173 1137.32 685.225C1144.86 691.328 1143.68 690.529 1149.53 695.14C1149.83 695.372 1147.37 693.336 1152.07 696.885C1154.23 698.606 1166.17 707.193 1167.9 708.161C1168.58 708.593 1162.71 703.971 1161.75 703.739C1148.95 694.168 1157.51 700.883 1152.53 697.161C1151.81 696.54 1153.53 697.885 1141.3 688.131C1143.78 689.807 1157.87 701.032 1160.47 702.704C1165.63 706.429 1144.67 690.665 1140.92 687.635C1142.86 688.821 1139.49 686.449 1135.06 682.625C1130.23 678.419 1132.4 680.177 1129.81 677.881C1122.8 671.521 1125.54 674.331 1120 668.821C1125.07 674.549 1110.31 659.597 1106.36 654.917C1113.19 662.147 1120.31 669.103 1127.69 675.766C1127.29 675.361 1126.89 674.954 1126.49 674.546C1128.42 676.319 1130.37 678.071 1132.33 679.802C1132 679.548 1131.66 679.294 1131.33 679.038C1141.61 687.788 1144.16 689.873 1145 690.596C1156.02 699.519 1169.39 709.007 1181.58 716.551C1183.44 717.637 1182.16 716.909 1195.67 724.838C1200.02 727.316 1195.81 725.169 1200.79 727.872C1207.23 730.853 1206.98 731.043 1208.85 732.014C1214.24 734.762 1217.64 736.238 1218.14 736.479C1224.87 739.694 1234.92 744.089 1242.57 747.03C1242.71 747.085 1238.78 745.409 1243.73 747.384C1245.46 748.105 1261.01 754.573 1275.21 758.358C1271.55 757.27 1267.93 756.135 1264.28 754.929C1268.44 756.7 1298.97 764.362 1291.55 762.281C1287 761.162 1275.77 758.477 1274.67 757.764C1284.43 761.986 1341.48 771.597 1346.09 770.971C1346.71 771.038 1342.89 770.812 1343.75 770.901C1344.39 771.027 1357.62 771.958 1359.39 772.025C1360.44 772.109 1354.57 771.859 1355.05 771.919C1355.49 772.061 1371.96 772.733 1372.94 772.518C1368.85 772.566 1357.48 772.036 1363.45 772.163C1364.22 772.183 1368.2 772.397 1369.14 772.395C1377.82 772.491 1351.91 771.734 1347.9 771.169C1356.28 771.756 1366.93 772.297 1378 772.305C1388.48 772.328 1399.09 771.874 1408.26 771.073C1415.87 770.592 1396.99 772.086 1405.61 771.549C1423.45 770.237 1410.34 771.003 1410.9 770.949C1415.27 770.543 1430.46 769.292 1430.37 768.762C1436.78 767.89 1434.75 768.311 1443.77 766.697C1442.58 766.876 1441.38 767.049 1440.19 767.217C1450.19 765.454 1471.3 761.132 1469.72 761.491C1465.57 762.739 1454.55 764.949 1453.6 765.113C1452.2 765.354 1448.52 766.862 1433.07 768.803C1426.84 770.233 1457.39 764.886 1443.54 767.544C1453.01 766.425 1491.02 756.657 1496.19 754.229C1496.82 753.982 1493.78 754.743 1502.96 751.713C1507.31 750.256 1496.87 753.935 1498.87 753.301C1506.03 753.758 1585.2 714.597 1597.25 702.256C1598.12 701.617 1597.86 701.932 1598.72 701.301C1601.38 699.398 1610.78 692.003 1615.3 688.27C1605.78 695.821 1624.05 680.891 1628.38 676.728C1635.13 670.604 1634.79 671.066 1637.66 668.374C1648.8 658.034 1664.09 640.125 1671.57 631.014C1670.94 631.344 1684.15 614.952 1689.32 606.863C1693.5 600.636 1698.96 591.212 1693.47 599.72C1700.43 588.809 1707.03 576.882 1712.4 566.004C1713.29 564.203 1712.17 566.733 1713.67 563.654C1713.8 563.374 1713.9 562.936 1715.15 560.287C1725.16 538.206 1720.38 548.976 1722.3 544.867C1723.32 542.545 1724.04 540.817 1724.56 539.544C1719.37 552.704 1712.15 567.361 1710.11 571.219C1712.27 568.131 1723.63 542.902 1726.35 535.281C1726.45 535.02 1726.22 535.981 1726.33 535.716C1726.33 535.71 1726.33 535.705 1726.33 535.699C1727.58 532.911 1733.87 514.656 1732.39 518.351C1732.01 519.354 1729.23 527.779 1725.34 537.598C1726.36 534.933 1725.43 536.859 1725.61 536.388C1727.86 530.693 1732.92 516.656 1734.46 511.549C1734.83 510.39 1734.7 510.447 1734.76 510.257C1736.19 505.659 1735.89 507.631 1736.99 502.801C1739.79 494.517 1732.37 518.497 1732.97 516.843C1734.54 515.875 1747.62 461.581 1746.37 461.507C1746.43 461.322 1746.59 460.57 1746.88 459.017C1747.61 455.595 1749.54 440.193 1749.67 437.491C1749.7 437.042 1749.42 437.195 1749.47 436.639C1749.7 435.289 1751.31 416.319 1751.18 409.253C1751.05 413.085 1750.86 416.873 1750.62 420.701C1751.57 397.659 1751.04 401.165 1750.92 408.889C1750.91 409.274 1750.89 409.648 1750.88 410.015C1750.68 415.967 1750.17 423.588 1750.13 423.711C1750.1 423.943 1750.87 409.688 1750.82 400C1750.84 393.753 1750.75 389.524 1750.92 392.479C1750.95 392.939 1751 396.68 1750.99 400C1750.98 404.259 1750.93 407.784 1751.09 402.723C1751.1 402.331 1751.11 401.316 1751.11 400C1751.12 396.009 1750.94 389.312 1750.93 388.855C1750.93 386.511 1751.27 393.837 1751.35 400C1751.43 404.591 1751.4 408.474 1751.51 407.145C1751.49 404.95 1751.49 402.53 1751.48 400C1751.45 395.394 1751.39 390.462 1751.19 385.905C1751.05 382.692 1750.87 381.915 1750.85 381.52C1750.5 375.576 1750.81 378.903 1750.7 376.917C1750.68 375.836 1749.44 364.203 1750.01 366.373C1745.14 328.074 1749.31 355.757 1750.67 379.366C1750.18 371.863 1748.87 357.31 1747.9 350.785C1747.57 348.451 1747.64 349.85 1747.05 345.921C1746.35 337.704 1738.07 299.422 1734.54 289.818C1736.4 295.786 1736.03 293.991 1734.6 289.38C1733.14 284.759 1734.17 288.703 1733.87 287.807C1733.7 286.784 1726.3 265.353 1724.69 261.915C1730.88 277.85 1729.71 274.169 1724.44 260.648C1725.26 262.576 1726.07 264.513 1726.86 266.458C1723.88 258.496 1716.83 242.043 1714.54 237.696C1714.19 237.007 1715.28 239.556 1715.09 239.169C1713.26 235.259 1706.59 222.192 1706.17 221.645C1705.87 221.152 1708.73 226.708 1707.59 224.688C1707.36 224.269 1704.67 218.86 1701.65 213.737C1700.53 211.837 1701.1 213.045 1700.81 212.569C1698.41 208.614 1700.02 210.84 1695.58 203.64C1692.28 198.388 1689.64 194.615 1684.82 187.529C1700.17 211.065 1687.45 191.161 1680.44 181.723C1679.3 180.221 1680.18 181.583 1673.46 172.571C1688.12 191.495 1669.65 166.878 1665.43 162.197C1665.21 161.931 1665.25 161.743 1663.27 159.379C1663.1 159.18 1663.27 159.523 1661.4 157.347C1643.29 137.042 1654.9 149.996 1651.53 146.079C1650.1 144.396 1640.78 134.993 1638.18 132.558C1637.59 131.989 1637.94 132.173 1635.64 129.982C1631.58 126.111 1627.78 122.815 1625 120.371C1624.67 120.094 1624.79 119.925 1619.42 115.4C1617.91 114.133 1616.17 112.756 1618.29 114.592C1625.36 120.623 1638.49 132.416 1645.63 140.128C1652.29 147.013 1630.98 125.624 1629.61 124.78C1629.19 124.389 1633.58 128.324 1629.18 124.26C1625.42 120.789 1618.19 114.841 1612.29 110.021C1611.85 109.643 1607.22 105.68 1607.44 105.85C1607.67 105.977 1614.99 111.799 1613.97 110.904C1613.86 110.787 1609.22 107.061 1608.63 106.551C1607.93 105.915 1606.26 103.871 1605.26 103.086C1602.68 101.074 1604.29 102.47 1602.61 101.188C1599.07 98.3716 1586.27 89.2327 1585.69 89.179C1587.84 90.6312 1589.98 92.1108 1592.1 93.609C1580.18 85.4468 1585.18 89.051 1583.47 87.9243C1581.61 86.7535 1582.24 86.9253 1578.14 84.2892C1577.32 83.5965 1559.79 73.2474 1560.01 73.6008C1569.86 79.0579 1566.1 77.2228 1566.56 77.47C1568.25 78.479 1570.48 79.6573 1572.73 81.0422C1588.5 90.9549 1572.5 81.1156 1576.19 83.5018C1577.47 84.3171 1580.06 85.8516 1580.6 86.2068C1582.34 87.356 1582.29 87.4935 1583.45 88.2481C1586.17 90.0179 1583.12 87.7606 1583.34 87.8951C1585.85 89.3495 1595.11 95.9633 1589.17 92.1119C1592.62 94.5885 1593.17 94.6678 1595.85 96.7122C1601.14 100.806 1593.07 94.8682 1590.8 93.372C1582.69 87.9729 1580.38 86.2216 1568.56 79.1189C1564.3 76.5834 1559.11 73.8178 1557.08 72.7219C1555.84 71.9708 1543.88 65.2706 1543.18 65.7621C1538.44 63.3199 1531.08 59.4003 1526.01 57.2517C1521.47 55.3232 1522.82 56.1785 1522.39 56.004C1521.74 55.7356 1516.25 53.4611 1514.35 52.7693C1512.14 51.95 1513.21 52.455 1509.69 51.1581C1500.92 47.9941 1501.22 47.9327 1500.33 47.5827C1489.86 43.833 1494.35 45.7589 1492 45.0078C1489.9 44.0117 1458.9 35.4761 1452.12 34.6034C1454.83 35.0981 1457.55 35.6279 1460.25 36.1843C1455.47 34.9391 1450.28 34.1818 1450.25 33.8928C1449.19 34.1118 1439.24 32.0014 1436.19 31.5769C1434.99 31.3958 1435.07 31.4846 1433.59 31.2645C1427.81 30.3447 1414.54 28.7982 1411.39 28.6152C1397.63 27.4869 1432.77 31.1553 1435.42 32.0038C1430 30.8055 1398.64 27.9951 1413.01 29.5422C1415.22 29.7755 1419.19 29.9945 1420.44 30.1332C1428.9 31.0868 1422.23 30.4713 1422.89 30.5667C1424.02 30.7188 1429.58 31.2691 1431.03 31.509C1431.52 31.5965 1428.36 31.2613 1436.36 32.4847C1432.45 31.8367 1409.83 29.1143 1406.85 29.1027C1405.78 29.1044 1412.43 29.6452 1392.99 28.3204C1393.21 28.3607 1393.44 28.4013 1393.66 28.4421C1388.47 28.2333 1383.25 28.1309 1378 28.1371C1372.34 28.1439 1366.7 28.2772 1361.1 28.5342C1362.27 28.4066 1368.34 28.0226 1360.7 28.3652C1356.3 28.5964 1359.57 28.599 1359.16 28.6229C1355.02 27.3168 1285.58 37.5353 1272.93 43.2145C1268.5 44.4522 1256.28 48.6318 1255.38 49.0004C1249.8 50.7886 1230.46 58.4621 1226.73 60.3127C1224.37 61.3832 1226.67 60.4962 1224.56 61.4426C1222.6 62.3281 1224.58 61.2859 1223.99 61.5457C1218.92 63.2035 1183.56 82.3679 1175.79 87.9975C1180.53 84.5729 1205.74 69.9556 1205.29 70.3604C1205.16 70.3947 1198.88 73.6517 1197.63 74.423C1195.45 75.4805 1188.44 79.9063 1184.57 82.2139C1184.14 82.4842 1185.72 81.2227 1178.89 85.4741C1176.53 86.9458 1170.53 91.0018 1164.45 95.073C1155.13 100.301 1113.09 136.821 1111.26 140.421C1111.18 140.499 1116.74 134.988 1113.08 138.805C1108.25 143.919 1112.36 139.1 1106.68 145.017C1105.7 145.799 1090.68 162.967 1090.35 163.669C1086.1 169.11 1098.93 153.875 1098.86 154.18C1098.38 154.684 1087.77 167.38 1087.41 167.951C1086.99 168.44 1095.23 157.746 1085.17 170.467C1086.34 169.026 1087.53 167.595 1088.72 166.173C1084 172.156 1083.44 172.65 1082.3 174.102C1078.78 178.656 1075.32 183.801 1069.83 191.209C1068.38 193.172 1070.56 189.762 1070.38 190.007C1068.62 192.354 1066.84 195.641 1064.24 199.203C1064.07 199.491 1069.37 190.707 1059.85 205.887C1060.51 204.847 1061.18 203.811 1061.86 202.779C1060.46 204.899 1051.37 220.565 1050.29 222.768C1046.9 229.025 1049.64 223.45 1046.35 229.81C1048.59 225.795 1038.97 245.333 1039.43 244.162C1038.31 246.997 1030.82 263.897 1027.95 272.138C1026.02 277.257 1022.65 287.946 1022.16 289.621C1021.52 291.641 1021.53 290.967 1020.4 294.628C1020.06 295.66 1017.01 306.695 1014.63 316.413C1014.16 318.296 1012.99 322.229 1013.69 318.676C1014.85 312.584 1018.07 301.339 1017.89 301.435C1017.58 301.55 1013.83 316.844 1013 321.029C1009 340.213 1011.07 329.09 1010.87 329.566C1010.44 330.806 1008.62 341.393 1008.58 341.847C1008.22 343.674 1009.31 336.127 1009.26 336.003C1009.13 335.834 1007.29 346.056 1007.63 343.717C1008.04 340.36 1009.87 331.002 1009.99 330.42C1011.36 322.7 1009.03 333.191 1008.43 336.115C1008.23 336.996 1008.78 333.445 1008.64 334.179C1006.55 345.407 1008.59 336.618 1007.38 344.105C1006.37 350.768 1007.43 342.164 1007.4 342.412C1007.32 342.741 1006.17 350.72 1005.97 351.977C1005.72 352.583 1008.59 331.731 1008.4 332.583C1007.24 339.207 1006.25 345.858 1005.45 352.519C1005.15 353.007 1006.61 343.47 1006.77 342.489C1007.03 340.493 1006.09 346.017 1006.07 345.77C1006.03 345.635 1006.87 339.116 1005.92 344.977C1005.61 346.996 1005.12 351.245 1004.15 358.662C1007.21 332.881 1004.81 350.703 1004.62 351.45C1004.45 352.185 1005.88 339.864 1003.98 354.802C1003.51 355.405 1003.88 354.459 1004.36 350.206C1005.02 345.003 1003.05 356.975 1006.05 338.03C1005.6 339.089 1003.46 354.32 1003.42 355.155C1003.33 355.854 1003.64 352.435 1003.47 353.646C1001.47 368.015 1002.75 358.146 1002.07 362.286C1001.97 362.641 1000.75 376.26 1001.59 365.885C1003.31 346.946 1005.19 339.23 1005.1 335.958C1002.39 349.78 1001.18 366.817 1000.92 371.061C1000.46 377.591 1000.82 370.818 1000.73 371.62C1000.69 371.896 1000.33 377.534 1000.32 377.612C999.484 381.583 1002.16 352.534 1003.77 343.529C1003.35 345.941 1002.94 348.362 1002.56 350.792C1002.99 347.48 1003.45 344.203 1003.97 340.897C1001.54 356.571 1003.76 341.467 1004.11 337.461C1004.17 336.565 1002.62 346.932 1004.34 335.1C1002.85 343.789 1003.21 341.008 1002.2 348.895C1002 348.684 1004.56 330.879 1006.02 323.985C1001.34 348.518 1004.18 334.577 1001.02 355.935C1000.73 359.942 1001.91 349.681 1001.86 350.527C1001.58 353.518 1000.53 360.574 1000.22 369.068C1000.17 370.457 1000.8 364.616 1000.14 373.28C1000.06 374.236 999.572 379.772 999.573 379.697C999.477 378.951 999.865 373.468 999.838 373.241C999.793 373.022 999.441 379.146 999.437 379.169C999.263 379.347 999.681 374.053 999.589 374.821C999.362 376.489 997.768 398.458 999.61 369.749C998.294 393.653 999.376 372.761 1000.25 363.554C1000.47 361.206 1000.43 360.591 1000.77 357.219C1001.21 352.88 1001.93 347.849 1002.23 345.628C1002.59 343.232 1000.28 356.794 1003.37 337.144C1001.4 347.091 999.585 364.891 998.878 374.811C997.394 394.878 999.306 360.8 1000.02 357.3C1000.11 356.355 999.64 359.506 999.702 358.876C999.685 357.802 1002.33 338.684 1002.68 336.769C1002.87 334.863 1001.55 343.797 1001.38 344.357C1001.1 344.747 1005.03 321.662 1002.77 334.124C1001.13 342.75 999.489 358.678 998.967 361.385C1000.23 348.579 1002.13 335.88 1004.67 323.33C1003.15 330.156 1001.81 337.087 1000.67 344.023C1002.76 329.735 1005.4 317.536 1008.64 304.256C1000.57 336.146 1010.74 293.756 1011.25 293.377C1011.23 293.187 1007.49 305.661 1006.99 307.667C1009.24 296.343 1020.41 263.176 1013.58 282.487C1014.77 278.958 1017.54 270.401 1017.5 270.514C1016.84 271.474 1010.86 290.226 1011.74 287.131C1012.66 283.528 1014.49 278.627 1016.36 273.24C1026.56 245.775 1022.6 252.775 1035.48 226.292C1035.19 226.8 1034.9 227.309 1034.61 227.819C1049.03 199.217 1067.05 172.453 1088.09 148.321C1095.83 138.453 1119.36 114.696 1132.25 104.516C1134.73 102.333 1147.58 92.4717 1148.63 91.8263C1150.45 90.4871 1140.56 98.0378 1145.08 94.6971C1145.89 93.7923 1168.36 78.0875 1166.75 79.2084C1164.16 80.8535 1156.29 86.3919 1155.01 87.3C1144.93 92.1016 1217.36 48.4037 1222.25 48.6935C1220.51 49.4086 1218.79 50.1362 1217.07 50.8762C1221.91 48.664 1226.84 46.5397 1231.77 44.5366ZM1059.32 207.917C1057.84 210.637 1053.83 217.292 1051.67 221.354C1048.64 226.924 1044.35 236.83 1045.91 232.419C1050.07 224.093 1054.55 215.906 1059.32 207.917ZM1149.34 106.799C1144.38 110.605 1147.96 107.316 1152.11 104.308C1152.58 103.981 1156.09 101.722 1149.34 106.799ZM1101.41 151.286C1101.58 151.082 1105.23 147.103 1105.37 146.975C1108.73 143.494 1097.74 155.494 1101.41 151.286ZM1382.46 27.8931C1375.54 27.8627 1380.56 28.1666 1384.85 28.1191C1385.12 28.115 1382.92 27.8959 1382.46 27.8931ZM1377.54 27.8593C1372.15 27.5634 1361.41 28.4517 1369.96 28.1647C1370.79 28.1242 1377.78 27.8582 1377.54 27.8593ZM1132.13 120.915C1132.58 120.364 1137.48 116.179 1139.62 114.446C1139.61 114.556 1134.13 119.106 1132.13 120.915ZM1274.05 42.7499C1274.26 42.4451 1252.92 49.3157 1251.59 50.0928C1254.84 48.713 1273.8 42.7726 1274.05 42.7499ZM1330.2 30.9604C1329.63 30.9988 1321.99 32.0963 1322.23 32.1503C1325.95 31.6657 1332.74 30.6995 1330.2 30.9604ZM1443.97 33.7532C1444.37 33.8381 1438.79 32.2482 1452.2 35.145C1454.16 35.5783 1447.09 34.3004 1447.79 34.4628C1449.25 34.7734 1450.41 35.0166 1451.34 35.2052C1445.09 33.9805 1438.51 32.9266 1437.88 32.8C1434.92 32.1797 1443.79 33.7031 1443.97 33.7532ZM1501.96 48.7137C1503.23 49.0566 1511.13 52.0143 1512.9 52.7626C1513.2 52.8896 1511.8 52.5406 1515.33 53.918C1518.16 55.0391 1514.02 53.1481 1519.5 55.4088C1525.01 57.7303 1517.57 54.798 1518.05 55.016C1518.7 55.2631 1527.27 58.7977 1526.95 58.813C1526.73 58.7766 1517.61 54.8615 1515.31 54.0086C1512.38 52.8799 1515.88 54.3938 1510.99 52.4688C1507.91 51.2762 1509.71 51.6931 1509.06 51.4339C1508.52 51.1735 1497.62 47.4472 1501.98 48.7204C1501.97 48.7181 1501.97 48.7159 1501.96 48.7137ZM1453.03 35.5363C1452.56 35.4483 1452.01 35.3407 1451.34 35.2052C1451.91 35.3153 1452.47 35.4255 1453.03 35.5363ZM1068.93 192.637C1070.8 189.985 1065.52 198.035 1063.51 201.086C1063.38 201.079 1068.61 193.041 1068.93 192.637ZM1458.89 36.5756C1468.14 38.7727 1461.34 37.1945 1453.03 35.5363C1455.68 36.0349 1455.77 35.8699 1458.89 36.5756ZM1197.63 74.423C1197.99 74.2448 1198.23 74.1474 1198.28 74.1739C1197.33 74.6384 1197.23 74.6606 1197.63 74.423ZM1217.36 64.3243C1224.14 60.9139 1210.23 67.6022 1210.39 67.7142C1210.44 67.7141 1217.08 64.4431 1217.36 64.3243ZM1391.29 28.1142C1390.6 28.0891 1401.4 27.9773 1385.73 27.8352C1394.09 28.0991 1385.27 27.9142 1385.39 27.9674C1385.75 28.0278 1399.74 28.4359 1402.88 28.7664C1405.33 28.704 1393.57 28.1887 1391.31 28.1148C1391.31 28.1146 1391.3 28.1144 1391.29 28.1142ZM1597.22 99.0409C1595.61 98.0047 1590.72 94.4599 1587.34 92.166C1588.99 93.1356 1593.93 96.6215 1597.22 99.0409ZM1248.59 749.185C1274.98 758.314 1278.45 759.538 1254.17 751.391C1253.69 751.238 1246.98 748.65 1248.59 749.185ZM1484.31 757.021C1486.89 756.468 1478.56 759.006 1472.97 760.356C1471.71 760.672 1467.02 761.652 1472.31 760.251C1472.2 760.553 1480.42 758.449 1484.31 757.021ZM1464.16 37.6469C1466.88 38.1269 1475.12 40.324 1479.43 41.592C1476.77 40.9294 1468.01 38.5709 1464.16 37.6469ZM1337.74 770.388C1340.69 770.72 1342.66 770.717 1342.16 770.656C1339.93 770.385 1334.4 769.919 1337.74 770.388ZM1437.18 32.2839C1436.81 32.1046 1447.96 33.9594 1448.68 34.3496C1446.33 33.85 1437.45 32.3563 1437.18 32.2839ZM1590.99 94.52C1589.59 93.4703 1597.05 98.6436 1599.21 100.335C1598.99 100.256 1591.93 95.1787 1590.99 94.52ZM1385.17 772.409C1387.82 772.392 1394.39 772.156 1395.11 772.038C1396.02 771.93 1386.38 772.307 1385.17 772.409ZM1018.93 499.996C1018.86 499.683 1021.89 509.406 1023.26 513.746C1025.75 522.006 1018.86 500.4 1018.93 499.996ZM1310.1 766.461C1301.97 764.748 1311 766.634 1310.68 766.378C1305.18 765.435 1291.55 762.414 1300.89 764.62C1302.73 765.049 1307.53 765.984 1310.1 766.461ZM1317.67 767.834C1318.56 767.929 1324.54 768.661 1319.39 767.878C1317.02 767.511 1313.17 767.066 1317.67 767.834ZM1041.08 559.198C1043.92 566.108 1030.09 534.814 1030.12 533.737C1029.95 533.247 1029.84 532.923 1029.78 532.738C1029.27 531.585 1027.03 525.518 1026.92 524.771C1027.54 526.595 1029.4 531.557 1029.61 532.134C1029.7 532.384 1029.76 532.57 1029.81 532.7C1030.52 534.875 1040.3 557.983 1041.08 559.198ZM1068.99 608.476C1064.04 601.516 1063.63 599.974 1064.02 600.599C1069.22 608.306 1065.67 603.383 1065.81 603.632C1066.14 604.198 1069.92 609.604 1068.98 608.453C1068.98 608.461 1068.99 608.468 1068.99 608.476ZM1046.15 569.653C1045.97 569.351 1042.78 562.926 1042.67 562.649C1040.17 557.33 1049.22 575.495 1046.15 569.653ZM1543.71 66.0764C1548.28 68.4174 1543.72 66.2696 1540.67 64.7331C1540.42 64.6096 1539.66 64.0369 1543.71 66.0764ZM1321.74 768.432C1322.84 768.94 1353.13 772.234 1351.34 771.623C1348.72 771.878 1314.42 767.377 1321.74 768.432ZM1543.18 734.199C1538.35 736.565 1543.53 733.811 1546.11 732.579C1547.07 732.125 1544.39 733.601 1543.18 734.199ZM1422.13 30.0045C1416.57 29.4885 1417.76 29.2266 1422.56 29.9151C1422.75 29.9427 1422.35 30.0257 1422.13 30.0045ZM1503.68 750.858C1520.95 744.156 1517.23 746.778 1494.38 754.38C1495.09 754.117 1495.79 753.852 1496.5 753.584C1469.95 761.83 1494.74 754.316 1501.11 751.916C1503.54 751.045 1501.46 751.663 1503.66 750.863C1503.67 750.862 1503.67 750.86 1503.68 750.858ZM1567.99 720.729C1583.52 711.933 1554.21 729.332 1545.31 733.402C1553.68 728.969 1564.47 723.049 1549.62 730.787C1571.16 719.126 1562.21 723.992 1563.11 723.605C1564.13 723.049 1567.33 721.103 1567.99 720.729ZM1526.12 742.128C1525.18 742.572 1518 745.486 1515.39 746.51C1518.99 744.993 1532.37 739.311 1526.12 742.128ZM1106.14 654.81C1105.61 654.421 1104.42 653.345 1100.35 648.756C1101.66 650.127 1104.34 652.983 1106.14 654.81ZM1055.75 212.641C1053.59 216.267 1049.51 223.632 1050.87 221.432C1050.99 221.173 1055.78 212.674 1055.75 212.641ZM1409.97 771.402C1410.85 771.518 1433.96 768.752 1425.97 769.582C1423.57 770.005 1402.55 771.933 1409.97 771.402ZM1290.5 762.412C1292.38 762.891 1300.1 764.583 1300.28 764.571C1300.82 764.606 1291.34 762.546 1290.5 762.412ZM1045.44 231.28C1045.13 231.746 1039.53 243.372 1040.22 242.129C1041.42 239.731 1046.32 229.587 1045.44 231.28ZM1560.36 74.5518C1561.3 75.0757 1562.48 75.9011 1562.8 76.088C1563.62 76.4167 1580.49 86.6794 1573.97 82.8814C1573.01 82.0204 1548.33 67.9855 1544.9 66.5692C1543.72 65.732 1554.43 71.4327 1557 72.8862C1557.45 73.1349 1557.83 73.1499 1560.35 74.5481C1560.36 74.5493 1560.36 74.5505 1560.36 74.5518ZM1085.21 630.697C1084.43 630.195 1070.62 611.542 1071.02 611.583C1075.55 618.106 1080.28 624.476 1085.21 630.697ZM1092.64 639.845C1095.76 643.69 1088.27 634.836 1086.21 632.108C1086.23 632.046 1092.16 639.303 1092.64 639.845ZM1333.74 770.588C1336.06 770.84 1328.95 769.799 1330.55 769.958C1331.57 770.076 1336.75 770.751 1338.42 770.862C1338.89 770.901 1333.61 770.155 1332.08 769.963C1329.92 769.702 1332 770.096 1329.64 769.795C1321.82 768.781 1314.87 767.56 1307.6 766.178C1306.94 766.054 1312.02 767.112 1306.42 766.042C1305.56 765.873 1300.36 764.741 1293.7 763.219C1278.95 760.149 1268.29 756.805 1250.24 750.491C1250.87 750.837 1264.4 755.56 1265.23 755.755C1280.41 760.896 1308.44 767.349 1325.11 769.459C1329.37 770.051 1327.32 769.674 1329.15 769.916C1330.61 770.098 1328.85 770.058 1333.74 770.588ZM1056.8 210.661C1055.62 212.302 1052.19 218.476 1050.04 222.45C1050.92 221.117 1054.51 214.423 1056.8 210.661ZM1169.78 709.387C1171.65 710.661 1177.5 714.521 1178.02 714.779C1178.67 715.147 1170.22 709.589 1169.78 709.387ZM1647.93 142.659C1648.09 142.807 1651.81 146.78 1651.94 146.941C1655.17 150.575 1644.01 138.672 1647.93 142.659ZM1719.7 250.42C1721.38 254.196 1723.01 258.016 1723.41 259.35C1722.46 256.907 1719.43 250.009 1719.7 250.42ZM1750.05 425.645C1750.32 424.82 1749.22 437.165 1748.9 439.492C1748.96 438.611 1749.93 426.279 1750.05 425.645ZM1106.35 655.838C1101.17 650.278 1102.08 651.619 1098.95 647.951C1098.45 647.34 1097.14 645.107 1102.58 651.433C1103.57 652.558 1099.47 648.347 1106.35 655.838ZM1490.64 755.581C1488.82 756.287 1483.07 758.009 1479.13 759.093C1480 758.781 1487.87 756.492 1490.64 755.581ZM1035.42 252.316C1033.76 255.486 1027.89 270.851 1029.48 267.102C1029.65 266.539 1034.43 254.42 1035.42 252.316ZM1482.93 42.0671C1489.45 43.854 1476.04 39.8419 1471.68 38.9213C1473.64 39.3859 1482.5 41.9227 1482.93 42.0671ZM1750.61 382.503C1750.64 382.821 1750.89 389.98 1750.87 390.305C1750.95 396.174 1750.24 375.929 1750.61 382.503ZM1700.49 212.199C1701.97 214.331 1710.05 229.307 1711.57 232.81C1709.96 229.509 1698.86 209.437 1700.49 212.199ZM1128.75 677.614C1124.72 673.998 1120.99 670.451 1117.47 666.943C1118.23 667.657 1128.33 677.228 1128.75 677.614ZM1750.92 408.889C1750.91 409.274 1750.89 409.648 1750.88 410.015C1750.89 409.632 1750.91 409.256 1750.92 408.889ZM1230.38 742.809C1234.55 744.632 1233.74 744.095 1233.49 743.987C1230.36 742.619 1225.68 740.715 1230.38 742.809ZM1053.99 215.02C1053.06 216.304 1049.44 223.038 1047.39 226.914C1048.06 225.832 1052.21 218.085 1053.99 215.02ZM1584.32 710.814C1589.21 707.851 1569.83 720.665 1565.44 722.856C1565.16 723.078 1583.71 711.388 1584.32 710.814ZM1462.66 36.5255C1462.25 36.2795 1452.68 34.3539 1454.69 34.8499C1455.98 35.1346 1462.91 36.6438 1462.66 36.5255ZM1555.23 728.512C1553.33 729.588 1548.77 731.836 1550.33 730.947C1552.32 729.811 1555.72 728.237 1555.23 728.512ZM1366.94 773.128C1367.88 773.226 1380.76 773.221 1375.44 773.061C1371.75 772.948 1371.16 773.091 1370.3 773.077C1369.31 773.141 1348.82 772.071 1366.94 773.128ZM1678.11 621.75C1675.27 625.667 1671.65 630.272 1668.47 634.208C1669.75 632.59 1676.85 623.375 1678.11 621.75ZM1498.78 46.8287C1497.77 46.1177 1467.07 37.11 1484.47 42.3308C1485.5 42.5348 1502.14 48.0607 1498.78 46.8287ZM1106.35 655.838C1107 656.537 1107.76 657.343 1108.64 658.276C1107.76 657.354 1107.01 656.545 1106.35 655.838ZM1172.16 711.323C1170.65 710.438 1178.01 715.29 1180.25 716.607C1180.97 716.968 1172.35 711.474 1172.16 711.323ZM1668.32 634.581C1666.53 636.884 1663.1 640.926 1660.74 643.66C1661.1 643.167 1667.49 635.533 1668.32 634.581ZM1748.18 448.664C1747.41 454.395 1746.27 461.439 1746.34 461.567C1746.31 461.683 1746.25 461.959 1746.15 462.417C1746.07 462.883 1745.04 469.01 1744.48 471.64C1742.2 487.632 1753.26 409.904 1747.47 455.041C1747.73 452.92 1747.96 450.794 1748.18 448.664ZM1688.47 192.571C1686.77 189.753 1681.33 182.301 1682.67 184.285C1683.65 185.633 1690.22 195.362 1688.47 192.571ZM1739.9 307.594C1739.71 306.633 1737.27 297.948 1737.12 297.755C1738.51 302.742 1740.9 311.957 1739.9 307.594ZM1673.81 171.96C1672.56 170.312 1670.78 168.361 1670.92 168.557C1672.18 170.237 1675.84 174.774 1673.81 171.96ZM1117.02 667.424C1119.16 669.637 1126.42 676.23 1128.11 677.54C1128.39 677.823 1129.16 678.565 1130.61 679.893C1130.6 679.889 1130.6 679.885 1130.59 679.881C1131.53 682.968 1195.87 729.198 1152.9 697.968C1151.58 696.95 1153.3 698.444 1147.96 694.277C1147.61 694 1147.49 693.792 1146.41 692.933C1143.86 691.032 1130.96 680.077 1128.45 677.78C1128.44 677.748 1128.29 677.59 1127.95 677.266C1124.9 674.425 1115.33 665.75 1117.02 667.424ZM1743.9 324.979C1743.58 323.191 1742.32 317.585 1742.11 317.028C1742.73 319.804 1744.66 329.109 1743.9 324.979ZM1497.95 46.197C1494.48 44.916 1485.5 42.2643 1488.18 43.1669C1489.85 43.6603 1501.96 47.6199 1497.95 46.197ZM1728.08 269.848C1735.09 289.785 1729.8 274.589 1731 277.6C1730.06 275.001 1729.09 272.433 1728.08 269.848ZM1056.84 590.515C1058.54 593.42 1056.29 590.151 1054.54 586.87C1053.99 585.842 1055.88 588.89 1056.84 590.515ZM1007.56 447.541C1007.69 450.436 1006.18 436.421 1006.94 441.865C1006.97 442.121 1007.54 447.338 1007.56 447.541ZM1035.74 549.804C1036.79 551.842 1037.38 553.216 1040.08 559.065C1036.04 550.422 1039.59 558.533 1035.74 549.804ZM1746.37 461.507C1746.36 461.543 1746.35 461.574 1746.34 461.567C1746.35 461.527 1746.36 461.509 1746.37 461.507ZM1661.21 156.566C1659.59 154.466 1654.63 148.939 1656.02 150.668C1656.16 150.826 1660.45 155.79 1661.21 156.566ZM1128.11 677.54C1127.86 677.289 1128.01 677.399 1128.45 677.78C1128.46 677.81 1128.34 677.721 1128.11 677.54ZM1685.63 188.047C1685.44 187.86 1691.7 197.261 1691.92 197.66C1695.55 203.029 1688.35 191.851 1685.63 188.047ZM1425.3 29.3605C1424.72 29.2952 1428.42 29.9952 1430.7 30.2332C1432.47 30.4127 1427.47 29.5893 1425.3 29.3605ZM1027.48 529.506C1026.23 526.153 1024.59 521.403 1024.39 520.485C1025.13 522.77 1027.57 529.543 1027.48 529.506ZM1008.15 453.011C1008.84 457.144 1010.41 466.744 1011.61 472.76C1011.4 472.94 1008.64 456.921 1008.15 453.011ZM1110.21 660.509C1110.39 660.743 1116.7 667.128 1115.92 666.174C1114.74 664.821 1108.48 658.659 1110.21 660.509ZM1442.51 32.0663C1446.48 32.684 1437.4 30.8359 1433.18 30.4313C1431.01 30.1809 1441.85 31.9228 1442.51 32.0663ZM1645.68 139.364C1641.94 135.611 1650.99 145.11 1652.28 146.417C1650.64 144.613 1647.01 140.69 1645.68 139.364ZM1736.23 293.161C1731.62 277.117 1733.71 285.986 1734.67 288.798C1734.8 289.191 1736.34 293.551 1736.23 293.161ZM1020.54 290.904C1019.88 293.174 1022.65 284.813 1022.92 283.7C1023.07 283 1020.93 289.459 1020.54 290.904ZM1724.56 539.544C1724.83 538.891 1725.09 538.242 1725.34 537.598C1725.15 538.083 1724.9 538.717 1724.56 539.544ZM1610.31 106.802C1619.17 114.538 1618.37 113.566 1619.17 114.203C1620.86 115.629 1624.66 119.073 1627.77 121.843C1624.19 118.699 1620.55 115.623 1616.85 112.618C1619.98 114.772 1643.78 137.161 1644.08 137.83C1644.87 138.432 1637.55 131.208 1637.32 131.018C1637.02 130.708 1636.07 129.374 1635.38 128.708C1634.42 127.438 1613.87 109.376 1610.31 106.802ZM1724.66 260.242C1725.63 262.744 1725.79 263.501 1726.27 264.652C1726.43 265.044 1726.56 265.065 1727.11 266.41C1726.31 264.345 1725.49 262.289 1724.66 260.242ZM1593.2 94.532C1590.59 92.4644 1602.66 101.227 1602.99 101.587C1604.98 103.181 1595.39 96.1501 1593.2 94.532ZM1682.48 183.367C1682.2 182.893 1675.44 173.659 1675.4 173.802C1677.25 176.202 1686.13 188.665 1682.48 183.367ZM1727.76 268.083C1729.2 271.863 1731.57 279.056 1731.45 278.183C1731.45 278.178 1731.45 278.172 1731.44 278.167C1730.26 274.787 1729.04 271.439 1727.76 268.083ZM1456.06 34.3073C1448.8 32.5297 1452.19 33.544 1458.64 35.0342C1460.63 35.3441 1457.25 34.6023 1456.06 34.3073ZM1432.59 29.894C1430.59 29.3865 1409.27 27.1139 1412.51 27.6634C1413.64 27.7664 1425.93 29.0035 1426.47 29.1341C1427.32 29.2644 1423.42 28.9006 1429.91 29.743C1429.54 29.6318 1433.29 30.0101 1432.59 29.894ZM1450.04 32.9C1442.81 31.3016 1441.08 31.439 1446.57 32.4232C1448.71 32.8188 1451.07 33.1334 1450.04 32.9ZM1479.5 39.9388C1476.95 39.1678 1470.07 37.2748 1465.29 36.2828C1471.64 37.8115 1478.01 39.525 1484.28 41.3918C1485.02 41.5349 1481.74 40.5982 1479.48 39.9339C1479.49 39.9355 1479.5 39.9371 1479.5 39.9388ZM1003.51 408.7C1003.53 414.61 1003.21 400.997 1003.29 400.404C1003.37 398.689 1003.48 406.065 1003.51 408.7ZM1006.39 334.985C1006.07 336.606 1005.73 337.645 1005.24 341.261C1005.91 337.652 1006.63 334.063 1007.41 330.495C1007.69 327.661 1006.73 333.21 1006.39 334.985ZM1003.36 348.659C1003.43 348.148 1002.65 350.886 1003.85 344.316C1004.56 339.839 1001.53 364.264 1001.23 368.65C1001.51 363.784 1002.78 353.062 1003.36 348.659ZM998.362 391.504C998.302 391.782 998.562 382.424 998.666 381.354C999.042 375.691 998.491 389.952 998.362 391.504ZM1000.25 361.687C999.742 366.05 1000.66 356.345 1001.09 353.465C1001.17 353.187 1000.31 361.013 1000.25 361.687ZM1004.2 469.078C1004.81 473.806 1006.19 477.86 1004.69 470.708C1004.62 470.367 1004.17 468.877 1004.2 469.078ZM998.29 382.343C998.567 377.971 998.159 387.665 998.081 390.577C997.987 390.841 998.229 383.004 998.29 382.343ZM1004.22 472.484C1005.25 478.721 1005.45 476.408 1005.31 475.634C1004.72 472.45 1002.53 461.492 1002.16 459.222C1005.01 475.733 1003.79 469.527 1004.22 472.484ZM1011.21 500.836C1012.82 506.49 1008.99 491.957 1008.24 489.214C1008.91 492.044 1010.73 499.23 1011.21 500.836ZM1022.06 534.775C1023.13 537.755 1026.6 546.479 1027.33 547.876C1025.94 544.728 1022.6 535.999 1022.06 534.775ZM1024.38 541.549C1026.11 546.177 1026.92 547.121 1024.67 541.895C1024.58 541.692 1024.32 541.378 1024.38 541.549ZM1035.52 566.989C1036.81 569.975 1038.81 573.111 1036.47 568.404C1035.79 567.003 1035.39 566.672 1035.52 566.989ZM1005.15 480.392C1006.07 484.96 1007.66 490.736 1005.52 481.042C1006.3 484.445 1007.13 487.829 1007.99 491.195C1005.13 478.545 1005.12 479.49 1004.35 475.846C1003.36 470.743 1003.76 471.082 1004.04 472.091C1002.97 467.952 1000.03 450.054 999.032 439.566C999.842 448.791 1001.89 463.601 1003.63 472.542C1004.11 475.091 1004.69 477.538 1005.15 479.718C1005.88 483.202 1005.09 480.137 1005.14 480.374C1005.14 480.38 1005.14 480.386 1005.15 480.392ZM1053.1 598.99C1058 607.176 1055.09 601.879 1052.24 597.313C1052.11 597.119 1052.98 598.787 1053.1 598.99ZM996.777 394.921C997.339 382.164 996.714 391.471 998.393 364.84C997.673 375.997 998.491 365.467 998.399 367.65C998.31 369.395 997.791 375.947 998.204 372.147C997.507 377.173 996.949 398.883 997.062 399.903C997.062 399.894 997.062 399.885 997.062 399.876C997.051 400.463 996.679 398.999 996.777 394.921ZM1021.15 535.166C1021.87 538.307 1022.97 539.221 1024.98 545.15C1028.52 552.702 1016.52 523.733 1016.1 519.865C1027.13 552.014 1009.39 498.41 1016.28 521.145C1010.53 502.417 1014.23 515.057 1013.22 512.204C1012.14 509.167 1009.26 498.463 1009.27 499.039C1009.27 499.045 1009.27 499.051 1009.28 499.057C1011.05 505.621 1012.97 512.069 1015.1 518.536C1013.4 512.109 1017.55 525.329 1018.93 529.81C1019.65 531.592 1020.4 533.388 1021.15 535.166ZM1009.74 498.602C1009.83 499.278 1013.99 513.388 1013.84 512.436C1013.17 510.607 1007.64 490.434 1009.74 498.602ZM998.355 434.909C998.804 440.132 999.709 448.326 1000.24 451.14C999.522 445.917 998.732 437.731 998.355 434.909ZM1113.9 674.962C1118.8 679.583 1104.01 665.049 1108.2 669.347C1108.39 669.573 1113.65 674.749 1113.9 674.962ZM1026.94 549.362C1029.53 555.718 1028.63 552.571 1026.54 547.941C1026.42 547.673 1026.82 549.067 1026.94 549.362ZM996.996 384.599C996.802 384.173 998.045 365.643 998.484 362.434C998.258 364.247 996.973 385.16 996.996 384.599ZM997.22 425.667C997.455 436.207 999.686 450.369 999.922 451.902C1000.12 453.444 999.623 451.05 999.667 451.402C999.675 452.203 1002.3 468.615 1002.54 469.382C1002.66 469.945 1002.35 466.953 1003.04 470.303C1001.34 463.812 997.708 433.66 997.832 432.107C997.728 430.89 998.162 440.079 997.221 425.685C997.221 425.679 997.221 425.673 997.22 425.667ZM1000.42 455.777C999.908 451.667 1001.62 463.158 1002.12 465.935C1003.1 472.123 1000.4 456.291 1000.42 455.777ZM1005.39 483.293C1005.61 484.617 1008.41 496.232 1008.83 497.192C1007.48 491.688 1004.78 480.347 1005.39 483.293ZM1056.43 605.735C1058.09 608.363 1062.79 615.509 1063.17 615.849C1061.37 613.3 1056.76 606.107 1056.43 605.735ZM1003.83 321.882C1002.69 326.951 1005.1 315.158 1005.99 311.782C1006.07 311.602 1003.89 321.439 1003.83 321.882ZM1026.53 550.801C1026.84 552.712 1043.54 586.446 1046.67 590.773C1043.71 586.479 1027.21 553.042 1026.9 551.304C1026.69 550.854 1026.45 550.582 1026.53 550.801ZM1002.58 473.125C1001.79 469.769 1001.57 467.515 1001.5 467.087C1000.74 462.88 999.407 454.114 999.836 456.019C1000.77 463.515 1004.18 479.805 1002.58 473.125ZM1057.33 608.335C1064.36 619.002 1051.11 598.341 1052.79 601.087C1052.88 601.276 1056.59 607.241 1057.33 608.335ZM1024.86 546.943C1023.24 544.566 1010.75 508.959 1009.62 503.003C1011.3 508.167 1012.36 512.368 1014.63 519.306C1015.25 521.171 1015.17 520.644 1015.24 520.844C1016.32 524.067 1015.41 521.688 1016.09 523.673C1016.27 525.005 1026.37 550.617 1024.86 546.943ZM1002.12 471.211C1001.46 469.19 997.933 445.925 998.017 444.951C997.173 437.927 1001.48 469.463 1002.12 471.211ZM1026.02 550.201C1024.1 546.618 1017.51 529.083 1022.27 540.983C1022.73 542.12 1024.57 546.953 1026.02 550.201ZM1056.38 607.319C1056.67 607.883 1064.08 618.972 1064.33 619.093C1063.14 617.562 1052.54 601.276 1056.38 607.319ZM1052.46 601.617C1052.63 601.886 1051.09 599.159 1054.4 604.469C1054.69 604.902 1055.01 605.856 1059.41 612.373C1060.31 613.693 1061.79 615.674 1061.7 615.522C1057.15 608.728 1043.98 587.857 1052.46 601.617ZM1001.9 470.814C1002.06 472.072 1001.28 469.11 1000.91 466.369C1000.76 465.194 1001.25 467.353 1001.9 470.814ZM1081.19 641.554C1076.13 635.668 1091.68 654.416 1092.68 655.193C1092.15 654.613 1081.62 642.2 1081.19 641.554ZM1005.5 309.809C1005.5 309.815 1005.5 309.821 1005.5 309.827C1007.08 303.501 1006.22 307.451 1006.3 307.154C1009.92 293.721 1008.85 297.249 1009.38 295.138C1010.62 290.637 1010.65 291.443 1012.88 283.895C1009.22 296.365 1012.61 285.046 1012.84 284.722C1013.62 283.444 1007.63 301.223 1006.29 307.586C1006.08 308.462 1007.85 302.046 1007.32 304.296C1005.48 311.54 999.908 334.269 1005.5 309.809ZM1000.53 464.272C999.713 461.297 996.949 438.54 997.83 444.556C997.785 445.565 1001.35 468.636 1000.53 464.272ZM1755.51 465.138C1754.69 470.617 1756.98 457.967 1757.17 455.622C1757.31 454.447 1755.9 462.738 1755.51 465.138ZM1760.74 375.668C1760.31 369.091 1759.21 362.264 1759.96 370.383C1760.04 371.243 1760.73 376.423 1760.74 375.668ZM1564.92 734.67C1570.97 731.436 1570.45 731.359 1566.09 733.857C1564.54 734.73 1564.73 734.771 1564.92 734.67ZM1734.16 541.737C1734.44 541.113 1737.26 533.699 1737.08 533.938C1736.05 536.688 1732.45 545.829 1734.16 541.737ZM1563.04 735.767C1566.56 733.74 1560.35 736.976 1556.05 739.461C1558.28 738.281 1562.67 735.981 1563.04 735.767ZM1031.21 563.391C1032.75 566.416 1036.99 575.086 1039.64 579.933C1039.72 580.569 1032.84 566.986 1031.21 563.391ZM1761.3 403.571C1761.24 397.334 1761 410.686 1761.14 409.459C1761.16 409.292 1761.31 403.819 1761.3 403.571ZM1352.03 782.457C1356.54 782.688 1342.24 781.5 1346.16 781.963C1346.35 781.995 1351.77 782.455 1352.03 782.457ZM1290.14 773.148C1293.45 774.04 1307.8 776.926 1302.24 775.706C1301.38 775.563 1290.39 773.157 1290.14 773.148ZM1009.37 294.734C1008.68 296.454 1011.73 286.193 1012.26 284.744C1012.44 284.18 1010.21 292.466 1009.37 294.734ZM1602.44 710.737C1605.32 708.668 1612.68 703.132 1613.88 702.044C1610.5 704.774 1601.41 711.299 1602.44 710.737ZM1760.01 431.884C1760.67 426.52 1761.11 417.221 1760.75 419.51C1760.17 429.739 1761.14 418.284 1760.01 431.884ZM1542.8 746.387C1545.37 745.178 1547.23 743.999 1546.93 744.133C1544.12 745.411 1540.21 747.516 1542.8 746.387ZM1700.8 606.804C1700.99 606.733 1705.78 598.966 1705.08 599.962C1704.87 600.303 1700.67 606.883 1700.8 606.804ZM1098.02 661.816C1100.8 664.939 1092.04 655.654 1089.67 652.706C1088.54 651.257 1097.62 661.463 1098.02 661.816ZM1468.53 772.697C1468.15 772.995 1481.94 769.311 1476.47 770.624C1475.09 770.974 1468.66 772.626 1468.53 772.697ZM1332.91 780.997C1342.39 782.224 1302.67 776.341 1313.07 778.066C1313.82 778.319 1332.05 781.021 1332.91 780.997ZM1268.73 767.719C1270.31 768.193 1269.37 768.478 1262.9 766.272C1262.05 765.983 1266.1 767.104 1265.4 766.857C1264.98 766.784 1250.87 762.066 1250.25 761.784C1249.55 761.551 1250.32 761.987 1249.61 761.755C1248.81 761.515 1240.25 758.236 1235.82 756.429C1227.46 753.051 1226.54 752.701 1225.85 752.425C1223.87 751.568 1220.58 750.027 1216.62 748.187C1196.47 739.209 1167.48 721.791 1153.66 711.085C1166.2 720.271 1178.79 728.123 1192.32 735.598C1188.17 733.762 1212.5 746.071 1198.24 738.931C1204.19 743.585 1263.11 767.379 1268.71 767.713C1268.72 767.715 1268.72 767.717 1268.73 767.719ZM1758.39 349.839C1759.16 353.811 1756.14 333.311 1755.5 331.632C1756.04 334.319 1758.37 349.34 1758.39 349.839ZM1759.4 445.258C1759.18 447.17 1759.39 449.057 1757.73 458.999C1757.73 459.008 1757.73 459.017 1757.72 459.026C1757.22 461.948 1757.66 458.598 1757.55 459.13C1757.53 459.331 1755.87 468.411 1757.08 460.842C1758.79 449.312 1757.51 459.791 1758.4 453.648C1758.55 452.909 1759.8 441.19 1759.65 441.859C1759.64 441.93 1759.28 445.462 1759.19 446.04C1758.87 448.228 1758.89 447.147 1758.85 447.455C1758.82 448.477 1756.24 466.903 1755.48 469.522C1755.55 470.412 1759.83 440.207 1759.68 438.958C1759.77 438.214 1760.02 438.556 1760.12 437.787C1760.22 437.402 1761.11 425.162 1761.18 423.553C1761.22 423.09 1761.24 422.736 1761.27 422.476C1761.1 424.318 1761.64 413.229 1761.7 413.573C1761.74 413.773 1761.38 421.382 1761.34 421.676C1761.33 421.796 1761.32 421.9 1761.31 421.998C1761.69 420.463 1759.45 446.248 1760.06 440.704C1759.32 448.213 1759.96 439.619 1759.4 445.258ZM1753.68 480.933C1753.81 480.165 1753.94 479.397 1754.07 478.628C1751.47 491.567 1747.5 506.232 1742.73 520.636C1741.51 524.288 1743.1 520.15 1741.43 524.911C1740.08 528.723 1738.38 532.849 1739.1 530.778C1739.28 530.28 1742.12 522.569 1743.36 518.632C1747 507.021 1745.85 509.901 1746.08 509.223C1746.31 508.477 1748.53 501.159 1749.56 497.095C1752.12 486.947 1753.2 482.198 1755.92 468.162C1754.51 476.32 1755.62 471.891 1753.68 480.933ZM1409.15 782.639C1408.67 782.797 1400.05 783.315 1396.92 783.452C1397.4 783.352 1406.05 782.933 1409.15 782.639ZM1271.22 31.0292C1268.69 31.8271 1287.88 26.7253 1282.79 27.9526C1281.66 28.1872 1273.6 30.3149 1271.22 31.0292ZM1358.92 16.5513C1361.58 16.3575 1350.87 16.834 1350.91 16.991C1350.92 17.0123 1358.59 16.5544 1358.92 16.5513ZM1682.55 634.018C1682.26 634.43 1677.72 640.142 1677.56 640.304C1674.48 644.031 1689.27 625.114 1682.55 634.018ZM1466.44 26.1208C1457.45 24.0191 1484.43 30.7779 1476.21 28.577C1475.8 28.4321 1466.89 26.1924 1466.44 26.1208ZM1503.6 36.8624C1501.52 36.1102 1492.15 33.0265 1492 33.0613C1491.8 33.0436 1502.52 36.5847 1503.6 36.8624ZM1541.32 747.757C1542.38 747.498 1530.52 752.787 1526.33 754.491C1525.28 754.777 1537.28 749.756 1541.32 747.757ZM1611.27 705.357C1566.56 736.924 1576.61 730.232 1613.8 703.295C1613.92 703.344 1614 703.246 1611.27 705.357ZM1552.02 742.642C1553.75 741.643 1559.27 738.806 1562.95 736.776C1562.33 737.233 1554.73 741.273 1552.02 742.642ZM1248.68 38.0455C1251.82 36.6729 1266.38 32.1824 1263.83 33.0861C1263.19 33.2032 1247.49 38.4775 1248.68 38.0455ZM1679.85 637.731C1680.84 636.883 1670.38 649.576 1669.46 650.446C1666.09 654.232 1679.16 638.885 1679.85 637.731ZM1468.2 773.617C1465.43 774.445 1457.32 776.196 1452.13 777.184C1454.46 776.639 1463.85 774.697 1468.2 773.617ZM1504.95 762.913C1504.64 763.044 1497.63 765.401 1497.3 765.482C1491.52 767.292 1511.35 760.609 1504.95 762.913ZM1002.19 318.361C1002.23 318.115 1003.46 312.644 1003.52 312.458C1004.75 307.605 1001.05 324.026 1002.19 318.361Z" fill="#048B95"/>
<circle cx="1379" cy="400" r="386" transform="rotate(-180 1379 400)" stroke="#048B95" stroke-width="28" stroke-miterlimit="1.08636" stroke-dasharray="82 82"/>
</svg>
