<svg width="2865" height="1163" viewBox="0 0 2865 1163" fill="none" xmlns="http://www.w3.org/2000/svg">
<rect x="1000" y="625.384" width="1000" height="89" transform="rotate(-180 1000 625.384)" fill="#E9C918"/>
<rect x="2865" y="626" width="1000" height="89" transform="rotate(-180 2865 626)" fill="#E9C918"/>
<path d="M1465.07 1020.4C1404.58 1022.74 1354.76 1022.53 1284.12 997.474C1215.5 968.531 1205.2 961.854 1139.59 908.028C1091.84 865.997 1057.02 811.647 1038.37 772.045C1031.8 758.418 1026.89 746.696 1023.2 737.724C1009.79 702.319 1009.91 697.827 1000.03 645.22C992.148 592.13 993.59 558.905 1001.02 512.717C1003.11 464.694 1062.93 331.889 1101.7 294.941C1134.57 253.914 1184.26 219.124 1215.67 202.334C1225.47 196.887 1233.26 193.103 1239.4 190.277C1242 189.088 1243.27 188.676 1243.34 188.831C1243.34 188.831 1243.34 188.831 1243.34 188.831C1243.44 189.027 1241.68 190.099 1238.42 191.755C1222.69 199.745 1199.52 212.933 1174.94 232.117C1130.84 269.534 1122.81 271.497 1076.71 334.891C1035.12 400.955 1016.78 446.521 1004.26 537.397C999.782 627.327 1000.03 652.54 1046.27 768.231C1046.96 769.731 1047.67 771.241 1048.39 772.763C1111.54 884.978 1128.43 895.902 1237.03 961.695C1350.92 1027.49 1523.85 1015.9 1593.53 981.024C1602.3 977.469 1611.13 973.561 1620.32 969.091C1686.67 937.555 1761.11 876.61 1808.09 791.461C1864.28 696.267 1879.64 550.686 1836.41 436.195C1831.65 422.725 1825.98 408.803 1819.32 394.736C1773.06 285.702 1651.08 197.32 1584.1 175.879C1508.78 149.778 1487.88 146.71 1411.11 147.824C1366.86 149.597 1306.49 162.053 1258.87 182.342C1235 192.707 1239.89 189.245 1263.77 178.416C1299.06 162.98 1330.03 155.974 1349.27 151.293C1387.95 142.718 1405.27 139.657 1455.4 142.621C1505.37 147.142 1528.93 151.073 1557.11 159.315C1582.92 172.084 1591.59 156.27 1712.62 243.396C1774.52 294.567 1807.53 347.572 1828.68 390.212C1846.79 427.392 1855.97 457.933 1862.08 483.423C1878 537.874 1878.74 660.084 1841.67 745.707C1817.72 825.501 1708 946.58 1625.26 979.331C1615.21 984.255 1606.19 988.233 1598.22 991.542C1527.26 1017.78 1525.51 1014.58 1465.07 1020.4Z" fill="#E9C918"/>
<circle cx="1432" cy="580.384" r="436" transform="rotate(-180 1432 580.384)" stroke="#E9C918" stroke-width="28" stroke-miterlimit="1.08636" stroke-dasharray="89 89"/>
</svg>
