<svg width="2996" height="1009" viewBox="0 0 2996 1009" fill="none" xmlns="http://www.w3.org/2000/svg">
<rect x="1000" y="549.174" width="1000" height="89" transform="rotate(-180 1000 549.174)" fill="#DC5FA0"/>
<rect x="2996" y="548.174" width="1000" height="89" transform="rotate(-180 2996 548.174)" fill="#DC5FA0"/>
<path d="M1957.1 321.13C1931.5 257.296 1899.88 211.441 1841.71 151.925C1780.35 95.9783 1770.88 84.8044 1683.62 45.2515C1617.43 17.9572 1545.54 7.71295 1496 8.14136C1478.91 8.133 1464.57 9.06104 1453.69 10.1926C1411.46 15.796 1406.02 12.603 1347.67 29.8031C1290.04 49.2352 1256.9 66.3567 1212.36 95.4297C1163.41 119.771 1055.39 247.16 1038.9 306.246C1015.39 361.038 1000.71 428.018 998.087 468.916C997.071 481.713 996.657 491.624 996.394 499.38C996.288 502.654 996.133 504.173 995.971 504.174C995.971 504.174 995.971 504.174 995.97 504.174C995.773 504.173 995.564 501.816 995.591 497.603C995.721 477.274 997.038 446.651 1003 411.055C1016.78 345.398 1017.97 336.974 1059.26 256.129C1105.59 178.5 1142.1 133.271 1232.32 75.3171C1324.8 26.6783 1349.57 5.91278 1496 0C1497.93 0.0256958 1499.89 0.0631714 1501.86 0.11322C1651.31 14.3945 1673.04 17.6473 1799.98 99.0956C1929.49 186.589 2000.84 378.839 1999.8 469.734C2000.56 480.833 2001 492.167 2001.03 504.174C2002.06 590.421 1976.34 701.11 1909.63 794.092C1837.37 901.504 1692.55 995.492 1548.58 1006.4C1531.88 1008.02 1514.25 1008.89 1496 1008.77C1357.06 1013.53 1203.86 927.437 1149.08 867.085C1085.3 800.12 1072.28 779.995 1033.99 699.76C1013.1 652.957 996.313 583.208 995.79 523.538C995.722 493.534 996.18 500.471 997.658 530.41C1000.41 574.341 1007.83 609.841 1014.44 631.434C1028.55 674.332 1035.12 692.386 1060.64 743.15C1087.82 793.232 1107.59 812.348 1129.13 837.245C1154.14 857.551 1140.5 876.703 1289.72 955.481C1372.6 992.338 1442.48 999.066 1496 999.116C1542.49 998.807 1577.77 992.863 1606.43 986.299C1668.81 975.289 1793.93 918.25 1861.72 837.772C1929.86 773.741 1998.64 603.797 1990.47 504.174C1990.41 491.609 1989.88 480.57 1989.17 470.926C1979.55 386.796 1978.94 386.193 1957.1 321.13Z" fill="#DC5FA0"/>
<circle cx="1496" cy="504.174" r="486" transform="rotate(-180 1496 504.174)" stroke="#DC5FA0" stroke-width="28" stroke-miterlimit="1.08636" stroke-dasharray="91 91"/>
</svg>
